<mxfile host="app.diagrams.net" modified="2022-03-21T23:05:41.955Z" agent="5.0 (Windows NT 10.0; Win64; x64) AppleWebKit/537.36 (KHTML, like Gecko) Chrome/99.0.4844.51 Safari/537.36 Edg/99.0.1150.39" etag="6ItnrrBwqh3FkE9ENxQu" version="17.1.3" type="github" pages="3">
  <diagram id="LXt_6ldumjAD1ES0BPMl" name="ConnectionTest">
    <mxGraphModel dx="2746" dy="1059" grid="1" gridSize="10" guides="1" tooltips="1" connect="1" arrows="1" fold="1" page="1" pageScale="1" pageWidth="850" pageHeight="1100" math="0" shadow="0">
      <root>
        <mxCell id="0" />
        <mxCell id="1" parent="0" />
        <mxCell id="q9Kves0xi8D7fbNKaZfF-1" value="Start" style="rounded=1;whiteSpace=wrap;html=1;fillColor=#d5e8d4;strokeColor=#82b366;fontStyle=1" parent="1" vertex="1">
          <mxGeometry x="150" y="120" width="120" height="60" as="geometry" />
        </mxCell>
        <mxCell id="q9Kves0xi8D7fbNKaZfF-2" value="Initialize N-Unit Test Fixture" style="rounded=0;whiteSpace=wrap;html=1;fillColor=#dae8fc;strokeColor=#6c8ebf;" parent="1" vertex="1">
          <mxGeometry x="150" y="237" width="120" height="60" as="geometry" />
        </mxCell>
        <mxCell id="q9Kves0xi8D7fbNKaZfF-3" value="" style="endArrow=classic;html=1;rounded=0;exitX=0.5;exitY=1;exitDx=0;exitDy=0;entryX=0.5;entryY=0;entryDx=0;entryDy=0;" parent="1" source="q9Kves0xi8D7fbNKaZfF-1" target="q9Kves0xi8D7fbNKaZfF-2" edge="1">
          <mxGeometry width="50" height="50" relative="1" as="geometry">
            <mxPoint x="180" y="420" as="sourcePoint" />
            <mxPoint x="230" y="370" as="targetPoint" />
          </mxGeometry>
        </mxCell>
        <mxCell id="q9Kves0xi8D7fbNKaZfF-4" value="" style="edgeStyle=orthogonalEdgeStyle;rounded=0;orthogonalLoop=1;jettySize=auto;html=1;" parent="1" source="q9Kves0xi8D7fbNKaZfF-5" target="q9Kves0xi8D7fbNKaZfF-8" edge="1">
          <mxGeometry relative="1" as="geometry" />
        </mxCell>
        <mxCell id="q9Kves0xi8D7fbNKaZfF-5" value="Declare Variables" style="rounded=0;whiteSpace=wrap;html=1;fillColor=#dae8fc;strokeColor=#6c8ebf;" parent="1" vertex="1">
          <mxGeometry x="150" y="353" width="120" height="60" as="geometry" />
        </mxCell>
        <mxCell id="q9Kves0xi8D7fbNKaZfF-6" value="" style="endArrow=classic;html=1;rounded=0;entryX=0.5;entryY=0;entryDx=0;entryDy=0;exitX=0.5;exitY=1;exitDx=0;exitDy=0;" parent="1" source="q9Kves0xi8D7fbNKaZfF-2" target="q9Kves0xi8D7fbNKaZfF-5" edge="1">
          <mxGeometry width="50" height="50" relative="1" as="geometry">
            <mxPoint x="180" y="520" as="sourcePoint" />
            <mxPoint x="230" y="470" as="targetPoint" />
          </mxGeometry>
        </mxCell>
        <mxCell id="q9Kves0xi8D7fbNKaZfF-7" value="" style="edgeStyle=orthogonalEdgeStyle;rounded=0;orthogonalLoop=1;jettySize=auto;html=1;" parent="1" source="q9Kves0xi8D7fbNKaZfF-8" target="q9Kves0xi8D7fbNKaZfF-10" edge="1">
          <mxGeometry relative="1" as="geometry" />
        </mxCell>
        <mxCell id="q9Kves0xi8D7fbNKaZfF-8" value="Create N-Unit Test Run&amp;nbsp;" style="whiteSpace=wrap;html=1;fillColor=#dae8fc;strokeColor=#6c8ebf;rounded=0;" parent="1" vertex="1">
          <mxGeometry x="150" y="470" width="120" height="60" as="geometry" />
        </mxCell>
        <mxCell id="q9Kves0xi8D7fbNKaZfF-9" value="" style="edgeStyle=orthogonalEdgeStyle;rounded=0;orthogonalLoop=1;jettySize=auto;html=1;" parent="1" source="q9Kves0xi8D7fbNKaZfF-10" target="q9Kves0xi8D7fbNKaZfF-12" edge="1">
          <mxGeometry relative="1" as="geometry" />
        </mxCell>
        <mxCell id="q9Kves0xi8D7fbNKaZfF-10" value="Initialize Variables" style="whiteSpace=wrap;html=1;fillColor=#dae8fc;strokeColor=#6c8ebf;rounded=0;" parent="1" vertex="1">
          <mxGeometry x="150" y="587" width="120" height="60" as="geometry" />
        </mxCell>
        <mxCell id="q9Kves0xi8D7fbNKaZfF-11" value="" style="edgeStyle=orthogonalEdgeStyle;rounded=0;orthogonalLoop=1;jettySize=auto;html=1;" parent="1" source="q9Kves0xi8D7fbNKaZfF-12" target="q9Kves0xi8D7fbNKaZfF-15" edge="1">
          <mxGeometry relative="1" as="geometry" />
        </mxCell>
        <mxCell id="q9Kves0xi8D7fbNKaZfF-12" value="Try Connection" style="whiteSpace=wrap;html=1;fillColor=#dae8fc;strokeColor=#6c8ebf;rounded=0;" parent="1" vertex="1">
          <mxGeometry x="150" y="703" width="120" height="60" as="geometry" />
        </mxCell>
        <mxCell id="q9Kves0xi8D7fbNKaZfF-13" value="False" style="edgeStyle=orthogonalEdgeStyle;rounded=0;orthogonalLoop=1;jettySize=auto;html=1;" parent="1" source="q9Kves0xi8D7fbNKaZfF-15" target="q9Kves0xi8D7fbNKaZfF-16" edge="1">
          <mxGeometry relative="1" as="geometry" />
        </mxCell>
        <mxCell id="q9Kves0xi8D7fbNKaZfF-14" value="True" style="edgeStyle=orthogonalEdgeStyle;rounded=0;orthogonalLoop=1;jettySize=auto;html=1;" parent="1" source="q9Kves0xi8D7fbNKaZfF-15" target="q9Kves0xi8D7fbNKaZfF-17" edge="1">
          <mxGeometry relative="1" as="geometry" />
        </mxCell>
        <mxCell id="q9Kves0xi8D7fbNKaZfF-15" value="Is Connection True/Open?" style="rhombus;whiteSpace=wrap;html=1;fillColor=#dae8fc;strokeColor=#6c8ebf;rounded=0;" parent="1" vertex="1">
          <mxGeometry x="160" y="810" width="100" height="80" as="geometry" />
        </mxCell>
        <mxCell id="q9Kves0xi8D7fbNKaZfF-16" value="Program Result= Fail" style="whiteSpace=wrap;html=1;fillColor=#dae8fc;strokeColor=#6c8ebf;rounded=0;" parent="1" vertex="1">
          <mxGeometry x="-50" y="850" width="130" height="60" as="geometry" />
        </mxCell>
        <mxCell id="q9Kves0xi8D7fbNKaZfF-17" value="Program Result= Pass" style="whiteSpace=wrap;html=1;fillColor=#dae8fc;strokeColor=#6c8ebf;rounded=0;" parent="1" vertex="1">
          <mxGeometry x="340" y="850" width="130" height="60" as="geometry" />
        </mxCell>
        <mxCell id="q9Kves0xi8D7fbNKaZfF-18" value="Check Program Result" style="whiteSpace=wrap;html=1;fillColor=#dae8fc;strokeColor=#6c8ebf;rounded=0;" parent="1" vertex="1">
          <mxGeometry x="150" y="1140" width="120" height="60" as="geometry" />
        </mxCell>
        <mxCell id="q9Kves0xi8D7fbNKaZfF-19" value="Return&amp;nbsp; Program Result&amp;nbsp;" style="rounded=0;whiteSpace=wrap;html=1;fillColor=#dae8fc;strokeColor=#6c8ebf;" parent="1" vertex="1">
          <mxGeometry x="150" y="1020" width="120" height="60" as="geometry" />
        </mxCell>
        <mxCell id="q9Kves0xi8D7fbNKaZfF-20" value="" style="endArrow=classic;html=1;rounded=0;exitX=0.389;exitY=1.011;exitDx=0;exitDy=0;entryX=0.5;entryY=0;entryDx=0;entryDy=0;exitPerimeter=0;" parent="1" source="q9Kves0xi8D7fbNKaZfF-16" target="q9Kves0xi8D7fbNKaZfF-19" edge="1">
          <mxGeometry width="50" height="50" relative="1" as="geometry">
            <mxPoint x="300" y="1000" as="sourcePoint" />
            <mxPoint x="200" y="920" as="targetPoint" />
            <Array as="points">
              <mxPoint y="960" />
              <mxPoint x="210" y="960" />
            </Array>
          </mxGeometry>
        </mxCell>
        <mxCell id="q9Kves0xi8D7fbNKaZfF-21" value="" style="endArrow=classic;html=1;rounded=0;exitX=0.466;exitY=0.99;exitDx=0;exitDy=0;entryX=0.5;entryY=0;entryDx=0;entryDy=0;exitPerimeter=0;" parent="1" source="q9Kves0xi8D7fbNKaZfF-17" target="q9Kves0xi8D7fbNKaZfF-19" edge="1">
          <mxGeometry width="50" height="50" relative="1" as="geometry">
            <mxPoint x="260" y="960" as="sourcePoint" />
            <mxPoint x="310" y="910" as="targetPoint" />
            <Array as="points">
              <mxPoint x="400" y="960" />
              <mxPoint x="210" y="960" />
            </Array>
          </mxGeometry>
        </mxCell>
        <mxCell id="q9Kves0xi8D7fbNKaZfF-22" value="" style="endArrow=classic;html=1;rounded=0;exitX=0.5;exitY=1;exitDx=0;exitDy=0;entryX=0.5;entryY=0;entryDx=0;entryDy=0;" parent="1" source="q9Kves0xi8D7fbNKaZfF-19" target="q9Kves0xi8D7fbNKaZfF-18" edge="1">
          <mxGeometry width="50" height="50" relative="1" as="geometry">
            <mxPoint x="260" y="1040" as="sourcePoint" />
            <mxPoint x="310" y="990" as="targetPoint" />
          </mxGeometry>
        </mxCell>
        <mxCell id="q9Kves0xi8D7fbNKaZfF-23" value="&lt;h1&gt;&lt;u&gt;Connection Test&lt;/u&gt;&lt;/h1&gt;" style="text;html=1;strokeColor=none;fillColor=none;spacing=5;spacingTop=-20;whiteSpace=wrap;overflow=hidden;rounded=0;align=center;" parent="1" vertex="1">
          <mxGeometry x="55" y="70" width="310" height="60" as="geometry" />
        </mxCell>
      </root>
    </mxGraphModel>
  </diagram>
  <diagram id="meIuWX5t1aGWm9yRR88u" name="DataCollectionTest">
    <mxGraphModel dx="3160" dy="1764" grid="1" gridSize="10" guides="1" tooltips="1" connect="1" arrows="1" fold="1" page="1" pageScale="1" pageWidth="850" pageHeight="1100" math="0" shadow="0">
      <root>
        <mxCell id="a9GmgResV2FdEJpwr11O-0" />
        <mxCell id="a9GmgResV2FdEJpwr11O-1" parent="a9GmgResV2FdEJpwr11O-0" />
        <mxCell id="EGkyfVK8lPlAEWzILR4L-0" value="&lt;h1&gt;&lt;u&gt;Data Collection Test&lt;/u&gt;&lt;/h1&gt;" style="text;html=1;strokeColor=none;fillColor=none;spacing=5;spacingTop=-20;whiteSpace=wrap;overflow=hidden;rounded=0;" parent="a9GmgResV2FdEJpwr11O-1" vertex="1">
          <mxGeometry x="320" y="80" width="250" height="40" as="geometry" />
        </mxCell>
        <mxCell id="fDx1xfOl-T-hpd7fHFV0-0" value="" style="edgeStyle=orthogonalEdgeStyle;rounded=0;orthogonalLoop=1;jettySize=auto;html=1;" parent="a9GmgResV2FdEJpwr11O-1" source="EGkyfVK8lPlAEWzILR4L-1" target="sWM8CWg8tfOoeHK-KywL-0" edge="1">
          <mxGeometry relative="1" as="geometry" />
        </mxCell>
        <mxCell id="EGkyfVK8lPlAEWzILR4L-1" value="&lt;b&gt;Start&lt;/b&gt;" style="rounded=1;whiteSpace=wrap;html=1;fillColor=#d5e8d4;strokeColor=#82b366;" parent="a9GmgResV2FdEJpwr11O-1" vertex="1">
          <mxGeometry x="385" y="160" width="120" height="60" as="geometry" />
        </mxCell>
        <mxCell id="fDx1xfOl-T-hpd7fHFV0-2" value="" style="edgeStyle=orthogonalEdgeStyle;rounded=0;orthogonalLoop=1;jettySize=auto;html=1;" parent="a9GmgResV2FdEJpwr11O-1" source="sWM8CWg8tfOoeHK-KywL-0" target="fDx1xfOl-T-hpd7fHFV0-1" edge="1">
          <mxGeometry relative="1" as="geometry" />
        </mxCell>
        <mxCell id="sWM8CWg8tfOoeHK-KywL-0" value="Initialize N-Unit Test Fixture" style="rounded=0;whiteSpace=wrap;html=1;fillColor=#e1d5e7;strokeColor=#9673a6;" parent="a9GmgResV2FdEJpwr11O-1" vertex="1">
          <mxGeometry x="385" y="280" width="120" height="60" as="geometry" />
        </mxCell>
        <mxCell id="jesvQnmLpM0ffbUBb8M1-1" value="" style="edgeStyle=orthogonalEdgeStyle;rounded=0;orthogonalLoop=1;jettySize=auto;html=1;" parent="a9GmgResV2FdEJpwr11O-1" source="fDx1xfOl-T-hpd7fHFV0-1" target="jesvQnmLpM0ffbUBb8M1-0" edge="1">
          <mxGeometry relative="1" as="geometry" />
        </mxCell>
        <mxCell id="fDx1xfOl-T-hpd7fHFV0-1" value="Declare Variables" style="whiteSpace=wrap;html=1;fillColor=#e1d5e7;strokeColor=#9673a6;rounded=0;" parent="a9GmgResV2FdEJpwr11O-1" vertex="1">
          <mxGeometry x="385" y="420" width="120" height="60" as="geometry" />
        </mxCell>
        <mxCell id="JJjAjfJoS3GCq91DXHsW-8" value="" style="edgeStyle=orthogonalEdgeStyle;rounded=0;orthogonalLoop=1;jettySize=auto;html=1;" parent="a9GmgResV2FdEJpwr11O-1" source="jesvQnmLpM0ffbUBb8M1-0" target="JJjAjfJoS3GCq91DXHsW-7" edge="1">
          <mxGeometry relative="1" as="geometry" />
        </mxCell>
        <mxCell id="jesvQnmLpM0ffbUBb8M1-0" value="Create N-Unit Test Run" style="whiteSpace=wrap;html=1;fillColor=#e1d5e7;strokeColor=#9673a6;rounded=0;" parent="a9GmgResV2FdEJpwr11O-1" vertex="1">
          <mxGeometry x="385" y="560" width="120" height="60" as="geometry" />
        </mxCell>
        <mxCell id="JJjAjfJoS3GCq91DXHsW-4" value="False" style="edgeStyle=orthogonalEdgeStyle;rounded=0;orthogonalLoop=1;jettySize=auto;html=1;" parent="a9GmgResV2FdEJpwr11O-1" source="JJjAjfJoS3GCq91DXHsW-1" target="JJjAjfJoS3GCq91DXHsW-3" edge="1">
          <mxGeometry relative="1" as="geometry" />
        </mxCell>
        <mxCell id="JJjAjfJoS3GCq91DXHsW-6" value="True" style="edgeStyle=orthogonalEdgeStyle;rounded=0;orthogonalLoop=1;jettySize=auto;html=1;" parent="a9GmgResV2FdEJpwr11O-1" source="JJjAjfJoS3GCq91DXHsW-1" target="JJjAjfJoS3GCq91DXHsW-10" edge="1">
          <mxGeometry relative="1" as="geometry">
            <mxPoint x="650" y="960" as="targetPoint" />
          </mxGeometry>
        </mxCell>
        <mxCell id="JJjAjfJoS3GCq91DXHsW-1" value="Try Connection" style="rhombus;whiteSpace=wrap;html=1;fillColor=#e1d5e7;strokeColor=#9673a6;rounded=0;" parent="a9GmgResV2FdEJpwr11O-1" vertex="1">
          <mxGeometry x="392.5" y="830" width="105" height="90" as="geometry" />
        </mxCell>
        <mxCell id="0jHzPb-UMxsTylKVoN-v-6" style="edgeStyle=orthogonalEdgeStyle;rounded=0;orthogonalLoop=1;jettySize=auto;html=1;entryX=0.5;entryY=0;entryDx=0;entryDy=0;" parent="a9GmgResV2FdEJpwr11O-1" source="JJjAjfJoS3GCq91DXHsW-3" target="0jHzPb-UMxsTylKVoN-v-0" edge="1">
          <mxGeometry relative="1" as="geometry">
            <Array as="points">
              <mxPoint x="235" y="1380" />
              <mxPoint x="1060" y="1380" />
            </Array>
          </mxGeometry>
        </mxCell>
        <mxCell id="JJjAjfJoS3GCq91DXHsW-3" value="Program Result= FAIL" style="whiteSpace=wrap;html=1;fillColor=#e1d5e7;strokeColor=#9673a6;rounded=0;" parent="a9GmgResV2FdEJpwr11O-1" vertex="1">
          <mxGeometry x="170" y="960" width="130" height="60" as="geometry" />
        </mxCell>
        <mxCell id="JJjAjfJoS3GCq91DXHsW-9" value="" style="edgeStyle=orthogonalEdgeStyle;rounded=0;orthogonalLoop=1;jettySize=auto;html=1;" parent="a9GmgResV2FdEJpwr11O-1" source="JJjAjfJoS3GCq91DXHsW-7" target="JJjAjfJoS3GCq91DXHsW-1" edge="1">
          <mxGeometry relative="1" as="geometry" />
        </mxCell>
        <mxCell id="JJjAjfJoS3GCq91DXHsW-7" value="Initialize Variables" style="whiteSpace=wrap;html=1;fillColor=#e1d5e7;strokeColor=#9673a6;rounded=0;" parent="a9GmgResV2FdEJpwr11O-1" vertex="1">
          <mxGeometry x="385" y="700" width="120" height="60" as="geometry" />
        </mxCell>
        <mxCell id="TtLX11zZF2wgGh8IZGJY-1" value="False" style="edgeStyle=orthogonalEdgeStyle;rounded=0;orthogonalLoop=1;jettySize=auto;html=1;" parent="a9GmgResV2FdEJpwr11O-1" source="JJjAjfJoS3GCq91DXHsW-10" target="TtLX11zZF2wgGh8IZGJY-0" edge="1">
          <mxGeometry relative="1" as="geometry" />
        </mxCell>
        <mxCell id="TtLX11zZF2wgGh8IZGJY-3" value="True" style="edgeStyle=orthogonalEdgeStyle;rounded=0;orthogonalLoop=1;jettySize=auto;html=1;" parent="a9GmgResV2FdEJpwr11O-1" source="JJjAjfJoS3GCq91DXHsW-10" target="TtLX11zZF2wgGh8IZGJY-2" edge="1">
          <mxGeometry relative="1" as="geometry" />
        </mxCell>
        <mxCell id="JJjAjfJoS3GCq91DXHsW-10" value="Try Robot Power ON" style="rhombus;whiteSpace=wrap;html=1;fillColor=#e1d5e7;strokeColor=#9673a6;" parent="a9GmgResV2FdEJpwr11O-1" vertex="1">
          <mxGeometry x="610" y="920" width="80" height="80" as="geometry" />
        </mxCell>
        <mxCell id="0jHzPb-UMxsTylKVoN-v-4" style="edgeStyle=orthogonalEdgeStyle;rounded=0;orthogonalLoop=1;jettySize=auto;html=1;exitX=0.5;exitY=1;exitDx=0;exitDy=0;" parent="a9GmgResV2FdEJpwr11O-1" source="TtLX11zZF2wgGh8IZGJY-0" edge="1">
          <mxGeometry relative="1" as="geometry">
            <mxPoint x="1060" y="1400" as="targetPoint" />
            <Array as="points">
              <mxPoint x="650" y="1360" />
              <mxPoint x="1060" y="1360" />
            </Array>
          </mxGeometry>
        </mxCell>
        <mxCell id="TtLX11zZF2wgGh8IZGJY-0" value="Program Result=FAIL" style="whiteSpace=wrap;html=1;fillColor=#e1d5e7;strokeColor=#9673a6;" parent="a9GmgResV2FdEJpwr11O-1" vertex="1">
          <mxGeometry x="590" y="1090" width="120" height="60" as="geometry" />
        </mxCell>
        <mxCell id="TtLX11zZF2wgGh8IZGJY-5" value="" style="edgeStyle=orthogonalEdgeStyle;rounded=0;orthogonalLoop=1;jettySize=auto;html=1;" parent="a9GmgResV2FdEJpwr11O-1" source="TtLX11zZF2wgGh8IZGJY-2" target="TtLX11zZF2wgGh8IZGJY-4" edge="1">
          <mxGeometry relative="1" as="geometry" />
        </mxCell>
        <mxCell id="TtLX11zZF2wgGh8IZGJY-2" value="Enable Data Collection" style="whiteSpace=wrap;html=1;fillColor=#e1d5e7;strokeColor=#9673a6;" parent="a9GmgResV2FdEJpwr11O-1" vertex="1">
          <mxGeometry x="750" y="930" width="120" height="60" as="geometry" />
        </mxCell>
        <mxCell id="TtLX11zZF2wgGh8IZGJY-8" value="True" style="edgeStyle=orthogonalEdgeStyle;rounded=0;orthogonalLoop=1;jettySize=auto;html=1;entryX=0.5;entryY=0;entryDx=0;entryDy=0;" parent="a9GmgResV2FdEJpwr11O-1" source="TtLX11zZF2wgGh8IZGJY-4" edge="1" target="TtLX11zZF2wgGh8IZGJY-14">
          <mxGeometry relative="1" as="geometry">
            <mxPoint x="890" y="1250" as="targetPoint" />
          </mxGeometry>
        </mxCell>
        <mxCell id="TtLX11zZF2wgGh8IZGJY-4" value="Try Robot Move" style="rhombus;whiteSpace=wrap;html=1;fillColor=#e1d5e7;strokeColor=#9673a6;" parent="a9GmgResV2FdEJpwr11O-1" vertex="1">
          <mxGeometry x="850" y="1080" width="80" height="80" as="geometry" />
        </mxCell>
        <mxCell id="TtLX11zZF2wgGh8IZGJY-6" value="False" style="endArrow=classic;html=1;rounded=0;exitX=0;exitY=0.5;exitDx=0;exitDy=0;entryX=1;entryY=0.5;entryDx=0;entryDy=0;" parent="a9GmgResV2FdEJpwr11O-1" source="TtLX11zZF2wgGh8IZGJY-4" target="TtLX11zZF2wgGh8IZGJY-0" edge="1">
          <mxGeometry width="50" height="50" relative="1" as="geometry">
            <mxPoint x="760" y="1130" as="sourcePoint" />
            <mxPoint x="810" y="1080" as="targetPoint" />
          </mxGeometry>
        </mxCell>
        <mxCell id="TtLX11zZF2wgGh8IZGJY-11" value="Check Program Result" style="whiteSpace=wrap;html=1;fillColor=#e1d5e7;strokeColor=#9673a6;" parent="a9GmgResV2FdEJpwr11O-1" vertex="1">
          <mxGeometry x="1000" y="1510" width="120" height="60" as="geometry" />
        </mxCell>
        <mxCell id="TtLX11zZF2wgGh8IZGJY-18" value="True" style="edgeStyle=orthogonalEdgeStyle;rounded=0;orthogonalLoop=1;jettySize=auto;html=1;" parent="a9GmgResV2FdEJpwr11O-1" source="TtLX11zZF2wgGh8IZGJY-14" target="TtLX11zZF2wgGh8IZGJY-17" edge="1">
          <mxGeometry relative="1" as="geometry" />
        </mxCell>
        <mxCell id="TtLX11zZF2wgGh8IZGJY-14" value="Try Write Data to File" style="rhombus;whiteSpace=wrap;html=1;fillColor=#e1d5e7;strokeColor=#9673a6;" parent="a9GmgResV2FdEJpwr11O-1" vertex="1">
          <mxGeometry x="845" y="1230" width="90" height="90" as="geometry" />
        </mxCell>
        <mxCell id="0jHzPb-UMxsTylKVoN-v-1" value="" style="edgeStyle=orthogonalEdgeStyle;rounded=0;orthogonalLoop=1;jettySize=auto;html=1;" parent="a9GmgResV2FdEJpwr11O-1" source="TtLX11zZF2wgGh8IZGJY-17" target="0jHzPb-UMxsTylKVoN-v-0" edge="1">
          <mxGeometry relative="1" as="geometry">
            <Array as="points">
              <mxPoint x="1060" y="1370" />
              <mxPoint x="1060" y="1370" />
            </Array>
          </mxGeometry>
        </mxCell>
        <mxCell id="TtLX11zZF2wgGh8IZGJY-17" value="Program Result=TRUE" style="whiteSpace=wrap;html=1;fillColor=#e1d5e7;strokeColor=#9673a6;" parent="a9GmgResV2FdEJpwr11O-1" vertex="1">
          <mxGeometry x="1000" y="1245" width="120" height="60" as="geometry" />
        </mxCell>
        <mxCell id="0jHzPb-UMxsTylKVoN-v-0" value="Return Program Result" style="whiteSpace=wrap;html=1;fillColor=#e1d5e7;strokeColor=#9673a6;" parent="a9GmgResV2FdEJpwr11O-1" vertex="1">
          <mxGeometry x="1000" y="1400" width="120" height="60" as="geometry" />
        </mxCell>
        <mxCell id="0jHzPb-UMxsTylKVoN-v-2" value="" style="endArrow=classic;html=1;rounded=0;exitX=0.5;exitY=1;exitDx=0;exitDy=0;entryX=0.5;entryY=0;entryDx=0;entryDy=0;" parent="a9GmgResV2FdEJpwr11O-1" source="0jHzPb-UMxsTylKVoN-v-0" target="TtLX11zZF2wgGh8IZGJY-11" edge="1">
          <mxGeometry width="50" height="50" relative="1" as="geometry">
            <mxPoint x="770" y="1470" as="sourcePoint" />
            <mxPoint x="820" y="1420" as="targetPoint" />
          </mxGeometry>
        </mxCell>
        <mxCell id="ovfdf1ZTaaoy2QAIUPyN-1" value="" style="endArrow=classic;html=1;rounded=0;exitX=0.5;exitY=1;exitDx=0;exitDy=0;" edge="1" parent="a9GmgResV2FdEJpwr11O-1" source="TtLX11zZF2wgGh8IZGJY-0">
          <mxGeometry width="50" height="50" relative="1" as="geometry">
            <mxPoint x="380" y="1290" as="sourcePoint" />
            <mxPoint x="650" y="1240" as="targetPoint" />
          </mxGeometry>
        </mxCell>
        <mxCell id="ovfdf1ZTaaoy2QAIUPyN-2" value="" style="endArrow=classic;html=1;rounded=0;exitX=0.5;exitY=1;exitDx=0;exitDy=0;" edge="1" parent="a9GmgResV2FdEJpwr11O-1" source="JJjAjfJoS3GCq91DXHsW-3">
          <mxGeometry width="50" height="50" relative="1" as="geometry">
            <mxPoint x="280" y="1060" as="sourcePoint" />
            <mxPoint x="235" y="1170" as="targetPoint" />
          </mxGeometry>
        </mxCell>
        <mxCell id="ovfdf1ZTaaoy2QAIUPyN-3" value="" style="endArrow=classic;html=1;rounded=0;" edge="1" parent="a9GmgResV2FdEJpwr11O-1">
          <mxGeometry width="50" height="50" relative="1" as="geometry">
            <mxPoint x="950" y="1360" as="sourcePoint" />
            <mxPoint x="1060" y="1370" as="targetPoint" />
            <Array as="points">
              <mxPoint x="1060" y="1360" />
            </Array>
          </mxGeometry>
        </mxCell>
        <mxCell id="ovfdf1ZTaaoy2QAIUPyN-4" value="" style="endArrow=classic;html=1;rounded=0;" edge="1" parent="a9GmgResV2FdEJpwr11O-1">
          <mxGeometry width="50" height="50" relative="1" as="geometry">
            <mxPoint x="950" y="1380" as="sourcePoint" />
            <mxPoint x="1060" y="1390" as="targetPoint" />
            <Array as="points">
              <mxPoint x="1060" y="1380" />
            </Array>
          </mxGeometry>
        </mxCell>
        <mxCell id="ovfdf1ZTaaoy2QAIUPyN-7" value="False" style="endArrow=classic;html=1;rounded=0;" edge="1" parent="a9GmgResV2FdEJpwr11O-1" source="TtLX11zZF2wgGh8IZGJY-14">
          <mxGeometry width="50" height="50" relative="1" as="geometry">
            <mxPoint x="890" y="1320" as="sourcePoint" />
            <mxPoint x="1060" y="1360" as="targetPoint" />
            <Array as="points">
              <mxPoint x="890" y="1350" />
              <mxPoint x="1060" y="1350" />
            </Array>
          </mxGeometry>
        </mxCell>
      </root>
    </mxGraphModel>
  </diagram>
  <diagram id="83g2yoSsdNuPZmfVuYSn" name="SpecialRtoProduction">
    <mxGraphModel dx="2205" dy="974" grid="1" gridSize="10" guides="1" tooltips="1" connect="1" arrows="1" fold="1" page="1" pageScale="1" pageWidth="850" pageHeight="1100" math="0" shadow="0">
      <root>
        <mxCell id="fk7L6LDk19dpoy9ARTLD-0" />
        <mxCell id="fk7L6LDk19dpoy9ARTLD-1" parent="fk7L6LDk19dpoy9ARTLD-0" />
        <mxCell id="fk7L6LDk19dpoy9ARTLD-2" value="&lt;h1 style=&quot;text-align: center&quot;&gt;&lt;u&gt;Special Release To Production&lt;/u&gt;&lt;/h1&gt;" style="text;html=1;strokeColor=none;fillColor=none;spacing=5;spacingTop=-20;whiteSpace=wrap;overflow=hidden;rounded=0;" parent="fk7L6LDk19dpoy9ARTLD-1" vertex="1">
          <mxGeometry x="245" y="150" width="360" height="60" as="geometry" />
        </mxCell>
        <mxCell id="erOtlSVc27Ctic8wX9Gs-1" style="edgeStyle=orthogonalEdgeStyle;rounded=0;orthogonalLoop=1;jettySize=auto;html=1;exitX=0.5;exitY=1;exitDx=0;exitDy=0;entryX=0.5;entryY=0;entryDx=0;entryDy=0;" parent="fk7L6LDk19dpoy9ARTLD-1" source="fk7L6LDk19dpoy9ARTLD-3" target="erOtlSVc27Ctic8wX9Gs-0" edge="1">
          <mxGeometry relative="1" as="geometry" />
        </mxCell>
        <mxCell id="fk7L6LDk19dpoy9ARTLD-3" value="&lt;b&gt;Start&lt;/b&gt;" style="rounded=1;whiteSpace=wrap;html=1;fillColor=#d5e8d4;strokeColor=#82b366;" parent="fk7L6LDk19dpoy9ARTLD-1" vertex="1">
          <mxGeometry x="365" y="200" width="120" height="60" as="geometry" />
        </mxCell>
        <mxCell id="BqJHQWOFFg3fLbyc2W88-1" value="" style="edgeStyle=orthogonalEdgeStyle;rounded=0;orthogonalLoop=1;jettySize=auto;html=1;" parent="fk7L6LDk19dpoy9ARTLD-1" source="erOtlSVc27Ctic8wX9Gs-0" target="BqJHQWOFFg3fLbyc2W88-0" edge="1">
          <mxGeometry relative="1" as="geometry" />
        </mxCell>
        <mxCell id="erOtlSVc27Ctic8wX9Gs-0" value="Initialize N-Unit Test Fixture" style="rounded=0;whiteSpace=wrap;html=1;fillColor=#ffe6cc;strokeColor=#d79b00;" parent="fk7L6LDk19dpoy9ARTLD-1" vertex="1">
          <mxGeometry x="365" y="320" width="120" height="60" as="geometry" />
        </mxCell>
        <mxCell id="4uPEQ5ta0mQxdO6tTBlm-1" value="" style="edgeStyle=orthogonalEdgeStyle;rounded=0;orthogonalLoop=1;jettySize=auto;html=1;" parent="fk7L6LDk19dpoy9ARTLD-1" source="BqJHQWOFFg3fLbyc2W88-0" target="4uPEQ5ta0mQxdO6tTBlm-0" edge="1">
          <mxGeometry relative="1" as="geometry" />
        </mxCell>
        <mxCell id="BqJHQWOFFg3fLbyc2W88-0" value="Declare Variables&amp;nbsp;" style="whiteSpace=wrap;html=1;fillColor=#ffe6cc;strokeColor=#d79b00;rounded=0;" parent="fk7L6LDk19dpoy9ARTLD-1" vertex="1">
          <mxGeometry x="365" y="440" width="120" height="60" as="geometry" />
        </mxCell>
        <mxCell id="W534Cyfq5E0TMG0FhQ2n-1" value="" style="edgeStyle=orthogonalEdgeStyle;rounded=0;orthogonalLoop=1;jettySize=auto;html=1;" parent="fk7L6LDk19dpoy9ARTLD-1" source="4uPEQ5ta0mQxdO6tTBlm-0" target="W534Cyfq5E0TMG0FhQ2n-0" edge="1">
          <mxGeometry relative="1" as="geometry" />
        </mxCell>
        <mxCell id="4uPEQ5ta0mQxdO6tTBlm-0" value="Create N-Unit Test Run" style="whiteSpace=wrap;html=1;fillColor=#ffe6cc;strokeColor=#d79b00;rounded=0;" parent="fk7L6LDk19dpoy9ARTLD-1" vertex="1">
          <mxGeometry x="365" y="560" width="120" height="60" as="geometry" />
        </mxCell>
        <mxCell id="ya21ktv11CcfjEgXP8dV-1" value="" style="edgeStyle=orthogonalEdgeStyle;rounded=0;orthogonalLoop=1;jettySize=auto;html=1;" parent="fk7L6LDk19dpoy9ARTLD-1" source="W534Cyfq5E0TMG0FhQ2n-0" target="ya21ktv11CcfjEgXP8dV-0" edge="1">
          <mxGeometry relative="1" as="geometry" />
        </mxCell>
        <mxCell id="ya21ktv11CcfjEgXP8dV-6" style="edgeStyle=orthogonalEdgeStyle;rounded=0;orthogonalLoop=1;jettySize=auto;html=1;exitX=1;exitY=0.5;exitDx=0;exitDy=0;entryX=0.5;entryY=0;entryDx=0;entryDy=0;" parent="fk7L6LDk19dpoy9ARTLD-1" source="W534Cyfq5E0TMG0FhQ2n-0" target="ya21ktv11CcfjEgXP8dV-2" edge="1">
          <mxGeometry relative="1" as="geometry" />
        </mxCell>
        <mxCell id="W534Cyfq5E0TMG0FhQ2n-0" value="Initialize Varaiables" style="whiteSpace=wrap;html=1;fillColor=#ffe6cc;strokeColor=#d79b00;rounded=0;" parent="fk7L6LDk19dpoy9ARTLD-1" vertex="1">
          <mxGeometry x="365" y="700" width="120" height="60" as="geometry" />
        </mxCell>
        <mxCell id="ya21ktv11CcfjEgXP8dV-8" style="edgeStyle=orthogonalEdgeStyle;rounded=0;orthogonalLoop=1;jettySize=auto;html=1;entryX=0;entryY=0.5;entryDx=0;entryDy=0;" parent="fk7L6LDk19dpoy9ARTLD-1" source="ya21ktv11CcfjEgXP8dV-0" target="ya21ktv11CcfjEgXP8dV-7" edge="1">
          <mxGeometry relative="1" as="geometry">
            <Array as="points">
              <mxPoint x="280" y="1000" />
            </Array>
          </mxGeometry>
        </mxCell>
        <mxCell id="ya21ktv11CcfjEgXP8dV-0" value="Create Path for Firmware Backup" style="whiteSpace=wrap;html=1;fillColor=#ffe6cc;strokeColor=#d79b00;rounded=0;" parent="fk7L6LDk19dpoy9ARTLD-1" vertex="1">
          <mxGeometry x="230" y="840" width="120" height="60" as="geometry" />
        </mxCell>
        <mxCell id="ya21ktv11CcfjEgXP8dV-10" style="edgeStyle=orthogonalEdgeStyle;rounded=0;orthogonalLoop=1;jettySize=auto;html=1;entryX=1;entryY=0.5;entryDx=0;entryDy=0;" parent="fk7L6LDk19dpoy9ARTLD-1" source="ya21ktv11CcfjEgXP8dV-2" target="ya21ktv11CcfjEgXP8dV-7" edge="1">
          <mxGeometry relative="1" as="geometry">
            <Array as="points">
              <mxPoint x="600" y="1000" />
            </Array>
          </mxGeometry>
        </mxCell>
        <mxCell id="ya21ktv11CcfjEgXP8dV-2" value="Create Path for New Firmware" style="whiteSpace=wrap;html=1;fillColor=#ffe6cc;strokeColor=#d79b00;rounded=0;" parent="fk7L6LDk19dpoy9ARTLD-1" vertex="1">
          <mxGeometry x="520" y="840" width="120" height="60" as="geometry" />
        </mxCell>
        <mxCell id="ya21ktv11CcfjEgXP8dV-12" style="edgeStyle=orthogonalEdgeStyle;rounded=0;orthogonalLoop=1;jettySize=auto;html=1;exitX=0.5;exitY=1;exitDx=0;exitDy=0;" parent="fk7L6LDk19dpoy9ARTLD-1" source="ya21ktv11CcfjEgXP8dV-7" target="ya21ktv11CcfjEgXP8dV-13" edge="1">
          <mxGeometry relative="1" as="geometry">
            <mxPoint x="600" y="1080" as="targetPoint" />
            <Array as="points">
              <mxPoint x="437" y="1060" />
              <mxPoint x="610" y="1060" />
            </Array>
          </mxGeometry>
        </mxCell>
        <mxCell id="ya21ktv11CcfjEgXP8dV-17" value="True" style="edgeLabel;html=1;align=center;verticalAlign=middle;resizable=0;points=[];" parent="ya21ktv11CcfjEgXP8dV-12" vertex="1" connectable="0">
          <mxGeometry x="0.0824" y="3" relative="1" as="geometry">
            <mxPoint as="offset" />
          </mxGeometry>
        </mxCell>
        <mxCell id="ya21ktv11CcfjEgXP8dV-7" value="Try CMD TCP Connection" style="rhombus;whiteSpace=wrap;html=1;fillColor=#ffe6cc;strokeColor=#d79b00;" parent="fk7L6LDk19dpoy9ARTLD-1" vertex="1">
          <mxGeometry x="385" y="960" width="105" height="80" as="geometry" />
        </mxCell>
        <mxCell id="ya21ktv11CcfjEgXP8dV-13" value="" style="rounded=0;whiteSpace=wrap;html=1;fillColor=#ffe6cc;strokeColor=#d79b00;" parent="fk7L6LDk19dpoy9ARTLD-1" vertex="1">
          <mxGeometry x="550" y="1080" width="120" height="60" as="geometry" />
        </mxCell>
        <mxCell id="ya21ktv11CcfjEgXP8dV-14" value="Program Result=FAIL" style="rounded=0;whiteSpace=wrap;html=1;fillColor=#ffe6cc;strokeColor=#d79b00;" parent="fk7L6LDk19dpoy9ARTLD-1" vertex="1">
          <mxGeometry x="70" y="1080" width="120" height="60" as="geometry" />
        </mxCell>
        <mxCell id="ya21ktv11CcfjEgXP8dV-18" value="" style="endArrow=classic;html=1;rounded=0;" parent="fk7L6LDk19dpoy9ARTLD-1" edge="1">
          <mxGeometry width="50" height="50" relative="1" as="geometry">
            <mxPoint x="440" y="1060" as="sourcePoint" />
            <mxPoint x="200" y="1100" as="targetPoint" />
            <Array as="points">
              <mxPoint x="440" y="1100" />
            </Array>
          </mxGeometry>
        </mxCell>
        <mxCell id="ya21ktv11CcfjEgXP8dV-19" value="False" style="edgeLabel;html=1;align=center;verticalAlign=middle;resizable=0;points=[];" parent="ya21ktv11CcfjEgXP8dV-18" vertex="1" connectable="0">
          <mxGeometry x="-0.4714" y="2" relative="1" as="geometry">
            <mxPoint as="offset" />
          </mxGeometry>
        </mxCell>
      </root>
    </mxGraphModel>
  </diagram>
</mxfile>
